<svg version="1.2" xmlns="http://www.w3.org/2000/svg" viewBox="0 0 77 78" width="77" height="78"><style>.a{fill:#ffffff}</style><path fill-rule="evenodd" class="a" d="m76.5 38.8c0.2 6-2 10.9-6.3 13.7q-1.2 0.8-2.6 1.2-1.4 0.5-2.9 0.5-1.5 0.1-2.9-0.3-1.5-0.3-2.8-1c-3.8-2.1-6-6.5-6-11.9v-7.4q-0.3 0.5-0.7 1.2l-9 14.6c-3.1 4.9-6 5.3-7.9 4.7-1.8-0.5-4.1-2.4-4.1-8.2v-12.1l-16.3 26.2c2.7 3.1 6.1 5.7 9.8 7.5 3.8 1.8 7.9 2.8 12 3 4.2 0.2 8.4-0.4 12.3-1.9 3.9-1.4 7.4-3.7 10.5-6.5q0.5-0.5 1.1-0.7 0.7-0.2 1.3-0.2 0.7 0 1.4 0.3 0.6 0.3 1 0.8 0.5 0.5 0.7 1.2 0.3 0.6 0.3 1.3-0.1 0.7-0.3 1.4-0.3 0.6-0.9 1.1-2.6 2.5-5.6 4.4-3 2-6.4 3.3-3.3 1.3-6.8 2-3.6 0.7-7.1 0.7c-21.1 0-38.3-17.5-38.3-38.9 0-21.4 17.2-38.8 38.3-38.8 21 0 38.1 17.3 38.2 38.7v0.1zm-6.9 0.2c0 0 0-0.2 0-0.2 0-17.5-14.1-31.7-31.3-31.7-17.3 0-31.3 14.2-31.3 31.7q0 2 0.3 3.9 0.2 1.9 0.6 3.8 0.5 1.9 1.2 3.7 0.7 1.8 1.6 3.6l18.1-29.1c2.2-3.3 4.4-3.5 5.9-3.1 2.3 0.7 3.5 2.9 3.6 6.6v16l8.1-13.1c1.3-2.1 4.7-7.7 9.3-6.4 2.7 0.8 4.3 3.7 4.3 7.8v8.5c0 2.8 0.9 4.8 2.4 5.7q0.5 0.2 1 0.3 0.6 0.2 1.1 0.1 0.6 0 1.1-0.2 0.5-0.2 1-0.5c2.1-1.3 3.2-4 3-7.4z"/></svg>