<svg version="1.2" xmlns="http://www.w3.org/2000/svg" viewBox="0 0 48 48" width="48" height="48"><style>.a{fill:none;stroke:#fff;stroke-linecap:round;stroke-linejoin:round}.b{fill:#fff}</style><path class="a" d="m24 45.5c-11.9 0-21.5-9.6-21.5-21.5 0-11.9 9.6-21.5 21.5-21.5 11.9 0 21.5 9.6 21.5 21.5 0 11.9-9.6 21.5-21.5 21.5z"/><path class="a" d="m7.1 37.2c4.5-9.3 1.8-21.4 9.1-23.3 7.3-2 12 1.3 15.8 2.4 3.9 1.1 7 1.7 7.7 5.3 1 5.1-15.6 14.1-12 23.9"/><path class="a" d="m24.4 27c3.2 2.5 6.5 1.7 13.8-1.4"/><path class="a" d="m29.8 15.5c0-2.2-4.1-4.1-6.7-2"/><path class="a" d="m21 22.4c-1.8 0-3.3-1.4-3.3-3.3 0-1.8 1.5-3.3 3.3-3.3 1.9 0 3.4 1.5 3.4 3.3 0 1.9-1.5 3.3-3.4 3.3z"/><path class="a" d="m21 20.4c-0.7 0-1.2-0.6-1.2-1.3 0-0.7 0.5-1.3 1.2-1.3 0.8 0 1.3 0.6 1.3 1.3 0 0.7-0.5 1.3-1.3 1.3z"/><path class="b" d="m34.8 23.8c-0.4 0-0.7-0.4-0.7-0.8 0-0.4 0.3-0.8 0.7-0.8 0.5 0 0.8 0.4 0.8 0.8 0 0.4-0.3 0.8-0.8 0.8z"/><path class="a" d="m42.4 23c-0.1-2.3-0.7-4.5-1.6-6.5-0.9-2.1-2.2-3.9-3.8-5.5-1.6-1.6-3.4-2.9-5.5-3.8-2-0.9-4.2-1.4-6.5-1.6"/></svg>