<svg version="1.2" xmlns="http://www.w3.org/2000/svg" viewBox="0 0 755 869" width="755" height="869"><style>.a{fill:#fff}</style><path fill-rule="evenodd" class="a" d="m376.4 1c1.1-0.1 7.5 3 14.3 6.8 6.8 3.8 42 22.5 78.2 41.6 75.1 39.5 102.8 54.4 104.4 56.1 1.3 1.2-6.7 5-83.9 39.7l-51.2 23-31.2-16.1-31.3-16-28.6 14.7c-15.7 8.1-30.2 14.8-32.2 14.8-4.4 0.2-128.4-62.6-128.4-65 0-0.9 42.2-23.7 93.9-50.6 51.6-26.9 94.8-48.9 96-49zm-263.8 138.3c2.8-0.1 62.6 29.3 132.8 65.4 93.3 47.9 126.8 66.4 124.1 68.5-2.1 1.6-16.7 8.6-32.5 15.6-15.7 7-35.1 15.7-43 19.4q-3.8 1.8-7.6 3.5-3.9 1.8-7.7 3.6-3.8 1.7-7.7 3.5-3.8 1.7-7.7 3.5l-16.3 7.4-36.7-19.9q-8.1-4.4-16.2-8.8-8.1-4.4-16.2-8.8-8-4.4-16.1-8.7-8.1-4.4-16.2-8.8l-27.9-15.3v128.5l-57.2 25.5c-31.5 14-58 25.5-58.8 25.5-0.9 0-1.6-54.9-1.6-121.9v-121.9l53.8-27.8c29.5-15.2 56-27.9 58.7-28zm539.2 5.7c1.2 0 24.1 11.2 50.9 25l48.8 25-0.8 72.5-0.8 72.6-34.4 15.8c-18.9 8.6-71.1 32.3-116.1 52.6q-19.2 8.7-38.4 17.3-19.1 8.7-38.3 17.4-19.2 8.6-38.4 17.3-19.1 8.7-38.3 17.3c-114.4 51.7-167.6 75.7-237.2 106.8-35.8 16.1-65.2 30-65.2 31-0.1 1.1 2.1 2.6 4.9 3.5 2.8 0.9 15.3 7.7 27.9 15.1 12.7 7.5 29.8 17.1 38 21.4 8.3 4.4 15.1 8.8 15.1 9.8 0 1.1-30 15.5-66.7 32l-66.6 30.1-48.1-24.5-48.1-24.5 0.8-71.7c0.6-60.2 1.4-72.2 5-74.2 3.6-2.1 29.7-14 124.8-57 4.7-2.2 46.6-21.1 93.2-42.2l184.9-83.6c55.2-24.9 122-55.1 148.4-67 26.4-11.9 48-22.3 48-23.2 0-0.9-19.9-12.9-44.4-26.6-24.4-13.7-44.4-25.5-44.3-26.3 0-0.9 30-15 66.6-31.6 36.6-16.5 67.6-30.1 68.8-30.1zm100.1 285.3c2.7-0.3 2.9 238.6 0.2 242.6-1.2 1.8-27 16.1-57.3 31.8l-55.1 28.5-129-67c-71-36.9-128.1-67.8-127-68.8 1.2-1 25.3-12.1 53.7-24.6 28.4-12.5 55.3-24.6 59.8-26.8 7.8-3.9 9.9-3.2 43 14.6 45.9 24.6 91.6 48 94.5 48.4 1.3 0.2 2.6-28.3 2.9-63.3l0.5-63.7 24.4-11.2c13.4-6.1 32.7-14.8 42.8-19.3 10.2-4.5 24.4-11.1 31.6-14.6 7.2-3.5 13.9-6.5 15-6.6zm-297.3 277.1l60 30.4c33 16.7 60.4 30.7 60.9 31.2 0.5 0.5-25.9 14-58.6 29.9-32.7 16-77.7 38.1-100 49.1l-40.6 20-96.4-48.6c-82.2-41.5-103.5-54.2-90.7-54.2 1.3 0 27.3-11.4 57.9-25.3 30.5-13.9 58.1-26.4 61.4-27.6 4.2-1.7 14.1 1.8 37 13.2 34.3 17 28.6 16.6 57.5 4.1q3.6-1.5 7.1-3 3.6-1.6 7.2-3.1 3.6-1.6 7.2-3.1 3.6-1.6 7.2-3.1z"/></svg>